<svg xmlns="http://www.w3.org/2000/svg" viewBox="0 0 44 36"><path d="M35.2 11.25a5.564 5.564 0 0 0 5.5-5.625 5.5 5.5 0 1 0-11 0 5.563 5.563 0 0 0 5.5 5.625Zm-26.4 0a5.564 5.564 0 0 0 5.5-5.625A5.563 5.563 0 0 0 8.8 0a5.564 5.564 0 0 0-5.5 5.625 5.564 5.564 0 0 0 5.5 5.625ZM21.993 22.5a7.182 7.182 0 0 0 7.088-7.312 7.22 7.22 0 0 0-7.088-7.313 7.182 7.182 0 0 0-7.093 7.313 7.145 7.145 0 0 0 7.093 7.312Zm3.307 5.625a10.226 10.226 0 0 1 .593-3.33c-.159-.01-.3-.045-.462-.045h-6.862S8.8 28.948 8.8 34.123A1.913 1.913 0 0 0 10.752 36h18.295a10.144 10.144 0 0 1-3.747-7.875ZM12.643 15.188a9.573 9.573 0 0 1 .111-1.119 4.888 4.888 0 0 0-2.448-.569H6.055A6.324 6.324 0 0 0 0 20.06a1.267 1.267 0 0 0 1.211 1.315h13.716a9.6 9.6 0 0 1-2.284-6.187Zm25.3-1.687h-4.251a5.628 5.628 0 0 0-2.465.579 9.845 9.845 0 0 1 .11 1.108 9.411 9.411 0 0 1-1.007 4.172 9.554 9.554 0 0 1 12.2 2.015h.258A1.268 1.268 0 0 0 44 20.06a6.323 6.323 0 0 0-6.057-6.56Zm4.551 12.284a7.991 7.991 0 0 0-1.7-3 .363.363 0 0 0-.461-.072l-1.318.778a5.954 5.954 0 0 0-1.887-1.112v-1.63a.376.376 0 0 0-.294-.367 7.51 7.51 0 0 0-3.391 0 .639.639 0 0 0-.229.367v1.564a5.945 5.945 0 0 0-1.887 1.112L30 22.647a.365.365 0 0 0-.46.072 7.893 7.893 0 0 0-1.7 3 .386.386 0 0 0 .166.445l1.318.785a6.5 6.5 0 0 0 0 2.225l-1.318.785a.378.378 0 0 0-.166.445 7.937 7.937 0 0 0 1.7 3 .364.364 0 0 0 .46.072l1.324-.778a5.953 5.953 0 0 0 1.887 1.112v1.57a.371.371 0 0 0 .288.366 7.509 7.509 0 0 0 3.391 0 .376.376 0 0 0 .294-.366v-1.564a5.942 5.942 0 0 0 1.889-1.116l1.318.778a.364.364 0 0 0 .461-.072 7.983 7.983 0 0 0 1.7-3 .381.381 0 0 0-.173-.445l-1.318-.785a6.194 6.194 0 0 0 0-2.225l1.318-.785c.157-.024.221-.207.115-.382Zm-7.294 4.59a2.251 2.251 0 1 1 2.2-2.25 2.226 2.226 0 0 1-2.2 2.25Z"></path></svg>