<svg xmlns="http://www.w3.org/2000/svg" viewBox="0 0 65 65"><path d="M23.262 64.99a1.152 1.153 0 0 1-1.223-1.175c-.02-.355 0-.714 0-1.107h20.883a6.868 6.873 0 0 1-.018 1.375 1.105 1.106 0 0 1-1.182.913H33.52q-5.132 0-10.257-.006zm19.684-4.608c-3.487-.044-6.976-.012-10.465-.012H21.268c-1.157 0-1.536-.39-1.549-1.55a7.787 7.793 0 0 0-.066-1.418 2.065 2.067 0 0 0-1.432-1.666 2.491 2.493 0 0 1-1.689-1.854q-5.65-18.556-11.34-37.1c-.299-.99-.193-1.268.707-1.845 4.32-2.778 8.644-5.546 12.953-8.342a.887.888 0 0 1 1.343.14 23.399 23.417 0 0 0 2.024 2.008 2.13 2.131 0 0 0 1.24.524q9.038.052 18.075 0a2.137 2.139 0 0 0 1.241-.526 25.18 25.2 0 0 0 2.027-2.007.857.858 0 0 1 1.286-.164q6.574 4.264 13.18 8.48a1.209 1.21 0 0 1 .57 1.554q-5.746 18.778-11.468 37.56a2.183 2.185 0 0 1-1.438 1.5 2.244 2.246 0 0 0-1.658 2.435c.073 2.008-.3 2.286-2.064 2.286zM19.764 12.92a8.057 8.063 0 0 0-2.723 15.1 1.862 1.863 0 0 1 .905 1.015c1.505 3.6 3.036 7.2 4.525 10.813a1.94 1.942 0 0 1 .058 1.21 10.498 10.506 0 0 0 9.941 13.568c.76-.106 1.53-.157 2.274-.327a10.33 10.338 0 0 0 8.12-11.05 2.398 2.4 0 0 1 .246-1.215q2.33-4.444 4.728-8.853a2.909 2.911 0 0 1 .883-.973 8.094 8.1 0 0 0-8.008-14.01 1.308 1.309 0 0 1-.705.121q-6.158-1.165-12.303-2.378a1.72 1.721 0 0 1-.828-.484 7.994 8 0 0 0-5.859-2.628 8.841 8.848 0 0 0-1.254.09zm12.68 39.3a8.162 8.168 0 1 1 .06 0zm.02-12.743a4.658 4.662 0 0 0-4.596 4.59 4.624 4.628 0 0 0 9.248.084 4.66 4.663 0 0 0-4.618-4.675zm19.93 9.308 8.05-26.343c1.23.636 2.423 1.177 3.537 1.85a2.31 2.311 0 0 1 .8 2.9q-1.966 6.19-3.942 12.382-1.13 3.546-2.258 7.094a2.543 2.545 0 0 1-2.876 2.12H54.1zm-43.178 0a2.513 2.515 0 0 1-2.79-2.053Q3.75 38.314 1.08 29.898c-.327-1.032-.675-2.06-.974-3.1a2.182 2.184 0 0 1 .944-2.545c1.11-.643 2.278-1.18 3.497-1.8 2.68 8.78 5.338 17.482 8.042 26.33h-2.22zm20.962-4.662a2.315 2.317 0 1 1 2.325 2.328h-.019a2.318 2.32 0 0 1-2.307-2.327zm3.27-10.37a10.292 10.3 0 0 0-9.305 4.11c-1.247-2.964-2.467-5.854-3.726-8.84a8.073 8.079 0 0 0 6.858-3.136 8.163 8.169 0 0 0 1.374-7.414l9.251 1.77a8.194 8.2 0 0 0 7.068 13.407l-3.114 5.844a10.292 10.3 0 0 0-8.407-5.738zm10.642-2.37a5.816 5.821 0 0 1-.033-11.64 5.817 5.821 0 0 1 .083 11.642zm-.04-9.293a3.463 3.466 0 0 0-3.41 3.416 3.414 3.417 0 0 0 3.452 3.49 3.454 3.457 0 0 0 3.467-3.427 3.507 3.51 0 0 0-3.49-3.48zm-28.954-1.2a5.804 5.809 0 0 1 11.608.024 5.82 5.824 0 0 1-5.826 5.818h-.022a5.786 5.791 0 0 1-5.759-5.845zm2.323.073a3.486 3.489 0 0 0 3.43 3.41 3.437 3.44 0 0 0 3.497-3.46 3.477 3.48 0 0 0-3.44-3.46h-.014a3.525 3.528 0 0 0-3.472 3.507zm26.671 5.755h-.013a1.122 1.123 0 0 1-1.14-1.163v-.065a1.166 1.167 0 0 1 1.06-1.108h.14a1.208 1.209 0 0 1 1.12 1.18v.057a1.154 1.155 0 0 1-.962 1.083 1.185 1.186 0 0 1-.205.018zm-23.196-4.646h-.062a1.14 1.14 0 0 1-1.11-1.145v-.03a1.186 1.187 0 0 1 1.14-1.145h.036a1.141 1.142 0 0 1 1.147 1.156 1.11 1.11 0 0 1-1.127 1.165zM3.952 10.606 15.66 3.038l1.336 2.047-11.733 7.547c-.457-.717-.86-1.337-1.31-2.03zM48 5.091l1.32-2.06 11.715 7.57-1.31 2.025A17719.12 17719.12 0 0 0 48 5.088zm2.604-3.957a2.167 2.169 0 0 1 3.032-.8q4.086 2.552 8.093 5.226a2.213 2.215 0 0 1 .53 3.11A8932.327 8939.31 0 0 0 50.605 1.13zM3.27 5.542Q7.272 2.876 11.354.328c1.027-.644 2.152-.32 3.06.787L2.75 8.655a2.171 2.173 0 0 1 .522-3.117zm24.623 1.43V4.694h9.193V6.97zM25.53 2.332c0-.36-.008-.692 0-1.023A1.152 1.153 0 0 1 26.85.041q3.16-.005 6.323 0h4.95a1.16 1.161 0 0 1 1.322 1.273c.013.315 0 .63 0 1.021z"></path></svg>