<svg xmlns="http://www.w3.org/2000/svg" viewBox="0 0 39.156 39"><path d="M2.214 36.943a5.316 5.316 0 0 1-.8-6.495 6.58 6.58 0 0 1 2.11-2.167l9.132-5.812a.693.693 0 0 0 .32-.583v-1.333a.592.592 0 0 1 .173-.418l.387-.386a.59.59 0 0 1 .837 0l5.033 5.033a.592.592 0 0 1 0 .837l-.386.386a.592.592 0 0 1-.419.174h-1.33a.691.691 0 0 0-.584.32l-5.811 9.133a6.578 6.578 0 0 1-2.167 2.111 5.317 5.317 0 0 1-6.495-.8Zm25.442 0-.979-.979-.524-.524a4.8 4.8 0 0 1-.424-6.294L10.011 13.428A4.8 4.8 0 0 1 3.716 13l-.525-.524-.977-.976a4.152 4.152 0 0 1 0-5.872l3.914 3.917a6.19 6.19 0 0 0 3.914-3.915L6.128 1.716a4.151 4.151 0 0 1 5.871 0l.979.978.525.524a4.8 4.8 0 0 1 .423 6.3l15.716 15.713a4.793 4.793 0 0 1 6.3.424l.525.524.978.978a4.151 4.151 0 0 1 0 5.871l-3.919-3.914a6.186 6.186 0 0 0-3.914 3.914l3.914 3.915a4.152 4.152 0 0 1-5.87 0Zm-5.872-21.528 6.85-6.85.829-2.484a1.382 1.382 0 0 1 .545-.714l5.476-3.651 1.957 1.958-3.652 5.475a1.384 1.384 0 0 1-.714.545l-2.485.829-6.85 6.849Z"></path></svg>