<svg xmlns="http://www.w3.org/2000/svg" viewBox="0 0 65 65"><path d="M20.926 65.083a24.659 24.7 0 0 1-3.222-1.025 10.97 10.989 0 0 1-6.517-9.089 8.596 8.61 0 0 1-.005-1.032h3.99a7.149 7.161 0 0 0 14.295 0h4.08c-.121.874-.171 1.751-.37 2.593a11.166 11.185 0 0 1-9.185 8.435 1.167 1.168 0 0 0-.277.12zm40.36-1.816c-1.322-1.621-2.617-3.265-3.925-4.897-.147-.184-.3-.357-.543-.635 0 1.518.006 2.87 0 4.223a2.028 2.032 0 1 1-4.053-.022q-.007-4.982 0-9.964a2.031 2.035 0 0 1 3.646-1.333c1.312 1.602 2.592 3.23 3.887 4.847.155.194.317.38.581.7 0-1.536-.005-2.919 0-4.305a2.027 2.03 0 0 1 3.973-.6 2.32 2.324 0 0 1 .08.687q.01 4.982 0 9.965a1.974 1.977 0 0 1-1.33 2.015 2.158 2.162 0 0 1-.753.143 2 2.003 0 0 1-1.563-.826ZM20.333 58.46c-1.576-.868-2.225-2.347-2.026-4.537h8.028a4.19 4.196 0 0 1-1.604 4.264 3.998 4.005 0 0 1-2.372.833 4.192 4.2 0 0 1-2.027-.562zm23.76.522c-.507 0-1.015.007-1.52 0a2.026 2.03 0 0 1-.009-4.059c1.055-.013 2.11-.015 3.165 0a2.027 2.03 0 0 1 .009 4.06c-.2.004-.4.005-.606.005-.35-.003-.694-.008-1.04-.008zm-28.489-9.152a5.419 5.428 0 0 1-5.451-5.493q-.01-4.16 0-8.322a5.42 5.43 0 0 1 5.515-5.49h8.69c2.937 0 5.874-.006 8.814 0a5.42 5.429 0 0 1 5.384 5.363q.023 4.288 0 8.575a5.423 5.432 0 0 1-5.386 5.364h-9.637q-3.97.005-7.934.002zM54.88 47.8a1.988 1.992 0 0 1-2.11-2.096q-.007-5.016 0-10.03a1.98 1.984 0 0 1 2.099-2.103h2.599v-.054a26.734 26.779 0 0 1 3.466.192 4.925 4.933 0 0 1 3.999 4.94q.012 2.061 0 4.127a5.04 5.05 0 0 1-4.99 5.022q-1.18.007-2.36.006-1.352 0-2.705-.005zm1.973-10.146v6.081c1.02 0 1.971.015 2.92-.008a1.023 1.024 0 0 0 1.1-1.06q.038-1.997 0-3.997a.937.938 0 0 0-.881-1.001 23.324 23.364 0 0 0-1.3-.032c-.615.002-1.23.016-1.844.016zM.123 41.918a1.034 1.035 0 0 0-.118-.214V38.65a14.221 14.245 0 0 1 .585-1.455 5.068 5.076 0 0 1 5.497-2.554v11.066a5.723 5.732 0 0 1-1.05.1 5.022 5.03 0 0 1-4.919-3.89Zm62.55-10.384a2.037 2.04 0 0 1-1.789-1.974c-.052-2.051-.089-2.09-2.124-2.09h-1.936c0 .72.008 1.371 0 2.023a2.027 2.03 0 1 1-4.053-.026q-.01-5.05 0-10.099a1.972 1.975 0 0 1 2.084-2.057q2.535-.011 5.072 0a5.063 5.071 0 0 1 4.346 7.598.866.867 0 0 0 0 1.067 5.818 5.827 0 0 1 .615 3.994 1.952 1.955 0 0 1-2.02 1.575c-.07-.004-.134-.004-.2-.012zm-5.826-10.15v2.021c1.032 0 2 .02 2.966-.007a1.037 1.038 0 0 0 1.061-.97 1.007 1.008 0 0 0-.926-1.03 30.665 30.717 0 0 0-1.288-.022c-.604-.002-1.207.008-1.818.008zm-12.756 5.071c-.507 0-1.011.008-1.519 0a2.026 2.03 0 0 1 0-4.059c1.055-.013 2.11-.017 3.166 0a2.026 2.03 0 0 1 0 4.057c-.226.005-.452.007-.677.007-.33-.003-.652-.006-.975-.006zm-25.32 0h-.469c-.013-.231-.033-.414-.033-.6V11.258a4.056 4.063 0 0 1 8.022-.928 2.977 2.982 0 0 1 .087.689q.009 7.52 0 15.04c0 .1-.011.207-.021.393zm10.659-.013V11.47a7.004 7.016 0 0 0-2.965-6.007 7.097 7.109 0 0 0-11.226 5.752c-.046 4.806-.013 9.612-.013 14.418v.786h-4.059V11.16a11.16 11.178 0 0 1 22.318-.005q.01 7.31 0 14.611v.678zm25.326-11.169a2 2.003 0 0 1-1.987-2.031q-.01-5.08 0-10.16a1.963 1.966 0 0 1 2.039-2.035c1.754-.009 3.508-.017 5.262 0a5.073 5.081 0 0 1-.008 10.155c-1.05.013-2.106 0-3.24 0 0 .741.008 1.395 0 2.049a2 2.003 0 0 1-2.042 2.018Zm2.08-10.134v1.996c1.057 0 2.065.028 3.07-.013a.943.944 0 0 0 .95-.93.89.891 0 0 0-.816-1.033 19.94 19.973 0 0 0-1.319-.038c-.63 0-1.258.017-1.89.017zm-14.284 5.047a2.026 2.03 0 0 1-.02-4.057c.547-.013 1.099 0 1.644 0 .505 0 1.012-.007 1.52 0a2.026 2.03 0 0 1 .02 4.059q-.768.01-1.537.01-.818 0-1.632-.012z"></path></svg>