<svg xmlns="http://www.w3.org/2000/svg" viewBox="0 0 65 65"><path d="M7.437 64.132a.922.922 0 0 1 .641-1.138 1.4 1.4 0 0 0 1.034-1.05c.749-2.32 1.47-4.648 2.2-6.976.058-.183.1-.375.155-.586h2.19a33.366 33.372 0 0 1-2.634 8.413 6.7 6.7 0 0 1-1.327 1.737A2.27 2.27 0 0 1 8.409 65h-.087a.933.933 0 0 1-.885-.868ZM8.505 53.31c2.147-5.017 4.25-9.932 6.4-14.952-.425 0-.744-.018-1.057 0a5.082 5.083 0 0 1-5.219-4.756 53.324 53.334 0 0 1 0-7.531 5.22 5.22 0 0 1 5.2-4.8q14.753.09 29.506 0a7.677 7.678 0 0 1 7.228 5.228c.426 1.179.422 1.179 1.709 1.179.369 0 .737-.012 1.106 0a2.142 2.142 0 0 1 .03 4.276 10.073 10.075 0 0 1-1.624 0c-.646-.072-.911.141-1.108.789a7.474 7.475 0 0 1-4.535 5.1 8.023 8.024 0 0 1-2.778.484c-6.391.042-12.783.032-19.173.006a.94.94 0 0 0-1.026.7q-2.916 6.9-5.899 13.773c-.09.207-.365.474-.556.476-1.61.018-3.223.021-4.865.021zm13.387-8.63c.57-1.34 1.133-2.665 1.7-3.992.548-1.286.55-1.286 1.923-1.286h4.263c.02 3.062-2.083 5.422-6.092 5.422a11.879 11.88 0 0 1-1.79-.143zm39.277-7.63a2.849 2.85 0 0 1-.761-.692c-1.164-1.162-2.327-2.32-3.48-3.491a1.086 1.086 0 1 1 1.51-1.532c1.336 1.323 2.67 2.65 3.983 4a5.211 5.212 0 0 1 .576.944c-.27.327-.457.731-.757.857a.96.96 0 0 1-.369.065 1.893 1.893 0 0 1-.702-.152zm-59.443-3a2.112 2.112 0 0 1-1.72-2.065c-.01-1.406-.006-2.815 0-4.222a2.134 2.134 0 0 1 4.2-.6c.048.16.085.325.138.524h3.1v4.27H4.357c-.074.257-.127.482-.2.7A2.105 2.105 0 0 1 2.12 34.08a2.53 2.531 0 0 1-.394-.032Zm60.012-3.125c-.627 0-1.254.01-1.88 0a1.1 1.1 0 1 1 .008-2.182q1.944-.015 3.89 0a1.1 1.1 0 1 1-.008 2.18c-.276.006-.55.008-.827.008-.394-.003-.788-.007-1.183-.007zm-4.958-2.473a1.057 1.057 0 0 1 .1-1.608c1.353-1.371 2.718-2.729 4.083-4.087.345-.343.778-.568 1.22-.273a.953.953 0 0 1 .295 1.8 349.246 349.31 0 0 1-4.08 4.087 1.265 1.265 0 0 1-.881.4 1.016 1.016 0 0 1-.738-.32zm-37.606-8.244v-3.18h-.994a3.142 3.142 0 0 1-3.258-3.286c-.028-2.883-.008-5.765-.008-8.648v-.823h-2.1V0h17.027v4.242h-2.13v.773c0 2.817-.07 5.638.025 8.45a3.3 3.3 0 0 1-3.595 3.565c-.19-.018-.384 0-.655 0v3.18z"></path></svg>