<svg xmlns="http://www.w3.org/2000/svg" viewBox="0 0 35.973 32"><path d="m2.783 11.771 2.472-7.179A6.751 6.751 0 0 1 11.621 0h12.731a6.753 6.753 0 0 1 6.366 4.592l2.473 7.179A4.581 4.581 0 0 1 35.973 16v13.714A2.265 2.265 0 0 1 33.725 32h-2.248a2.265 2.265 0 0 1-2.248-2.286v-3.428H6.745v3.429A2.266 2.266 0 0 1 4.5 32H2.248A2.266 2.266 0 0 1 0 29.714V16a4.576 4.576 0 0 1 2.783-4.229Zm4.882-.343h20.643L26.474 6.1a2.253 2.253 0 0 0-2.122-1.529H11.621A2.253 2.253 0 0 0 9.5 6.1ZM6.745 16a2.286 2.286 0 1 0 2.248 2.286A2.266 2.266 0 0 0 6.745 16Zm22.483 4.571a2.286 2.286 0 1 0-2.248-2.286 2.265 2.265 0 0 0 2.248 2.286Z"></path></svg>