<svg xmlns="http://www.w3.org/2000/svg" viewBox="0 0 65 65"><path d="M8.144 65.444a9.276 9.278 0 0 1-3.118-.665 7.37 7.37 0 0 1-4.399-5.443A2.569 2.569 0 0 0 .495 59v-4.315c3.1-.557 6.207-1.113 9.352-1.68l-.642-3.646a3.351 3.352 0 0 0-.53 0q-2.27.4-4.534.82c-1.216.225-2.432.463-3.647.7v-3.808c1.342-.253 2.684-.51 4.026-.754 1.754-.318 3.51-.628 5.326-.952l-.656-3.727c-1.3.233-2.542.461-3.784.674-1.637.282-3.274.551-4.913.826v-3.808h.134a1.562 1.562 0 0 0 .307-.01q3.333-.594 6.663-1.2c.738-.133 1.474-.272 2.247-.415L9.191 34c-2.935.513-5.817 1.016-8.699 1.521v-3.808l6.227-1.084c1.032-.179 2.063-.37 3.127-.562l-.662-3.727L.49 27.904v-3.806l9.354-1.67-.65-3.682c-.237.022-.442.027-.642.062-1.1.194-2.2.388-3.293.59-1.59.294-3.181.596-4.77.892v-3.806c1.115-.211 2.229-.425 3.345-.626 1.985-.36 3.969-.708 6.007-1.071-.22-1.261-.436-2.473-.656-3.725-1.283.225-2.5.447-3.722.654-1.658.284-3.316.557-4.975.835V6.966a2.384 2.384 0 0 0 .132-.335 7.21 7.21 0 0 1 3.188-4.767A21.437 21.44 0 0 1 6.96.495h6.979c-.015.295-.044.588-.044.882v64.09c-1.161 0-2.3.027-3.425.027a38.434 38.44 0 0 1-2.325-.05zm9.52.029V1.385c0-.3-.023-.591-.034-.886h6.979c.535.172 1.078.317 1.6.52a7.635 7.636 0 0 1 4.867 7.072v4.174l-6.824-1.2-.676 3.716 7.478 1.344v3.786c-2.263-.4-4.494-.795-6.799-1.2l-.68 3.713 7.467 1.342v3.784l-6.791-1.2-.672 3.722 7.452 1.334v3.786l-6.78-1.2c-.224 1.227-.439 2.424-.674 3.713.9.165 1.778.33 2.658.487 1.473.262 2.95.507 4.418.8a.649.649 0 0 1 .4.47c.037 1.1.019 2.194.019 3.38l-6.83-1.2-.666 3.724 7.466 1.334v3.788l-6.799-1.2-.676 3.714 7.499 1.35c-.1 2.3.37 4.638-.765 6.8a7.468 7.469 0 0 1-6.853 4.318c-.726.015-1.453.019-2.184.019-1.17-.003-2.367-.015-3.6-.015zM36.907 56.1c-.083-.626-.114-1.26-.2-1.885a4.68 4.68 0 0 0-1.54-2.832.838.838 0 0 1-.27-.518c-.023-1.31-.012-2.618-.012-3.993a7.743 7.744 0 0 1 3.315 2.1 8.32 8.32 0 0 1 2.405 5.565 5.187 5.188 0 0 0 1.434 3.81 4.69 4.69 0 0 0 5.168.992 4.237 4.238 0 0 0 2.895-4.086c.086-3.36.035-6.72.042-10.082v-.784h3.853c.01.2.029.386.029.571 0 3.255.044 6.512-.011 9.765a8.53 8.53 0 0 1-3.336 7.068 8.77 8.77 0 0 1-5.28 1.74 8.36 8.362 0 0 1-8.493-7.433Zm14.69-15.47a13.24 13.242 0 0 1-12.254-9.522H64.86a13.332 13.334 0 0 1-12.762 9.53 11.908 11.91 0 0 1-.5-.008zm-12.91-13.4c.282-4.6 1.873-8.507 5.834-11.04a13.308 13.31 0 0 1 14.456-.418c4.39 2.453 6.192 6.532 6.511 11.448H53.991v-3.716h-3.777v3.725z"></path></svg>