<svg xmlns="http://www.w3.org/2000/svg" width="128" height="128"><path d="M0 0 C2.64717648 1.65736266 3.59703249 2.31193312 5 5 C5.82543957 10.85836882 5.52807388 16.77377838 5.44921875 22.67578125 C5.48939118 30.26837122 5.86625214 34.31168061 11 40 C12.61788547 44.85365641 12.93894722 50.15633129 11.31640625 55.0703125 C8.55997841 60.35441899 4.54899988 63.15033337 -1 65 C-6.61599916 65.36826224 -10.17665989 65.21556007 -15 62 C-19.05348618 57.85438914 -21.93538069 54.02255234 -22.03125 48.0546875 C-21.65163858 43.06279732 -20.03369238 40.04492318 -17 36 C-14.88036693 32.58875917 -14.74859072 29.86333527 -14.7265625 25.87890625 C-14.7059375 24.69619141 -14.6853125 23.51347656 -14.6640625 22.29492188 C-14.63806244 19.81061605 -14.61980826 17.32621685 -14.609375 14.84179688 C-14.58617188 13.65779297 -14.56296875 12.47378906 -14.5390625 11.25390625 C-14.53084473 10.17439697 -14.52262695 9.0948877 -14.51416016 7.98266602 C-13.87940048 4.30039682 -12.61020944 2.63180832 -10 0 C-6.1544104 -1.2818632 -3.93271581 -0.94927623 0 0 Z " fill="#080808" transform="translate(79,19)"></path><path d="M0 0 C1.12775345 0.00212242 1.12775345 0.00212242 2.27828979 0.00428772 C4.6829626 0.0098916 7.08754277 0.02244468 9.4921875 0.03515625 C11.12109241 0.04017075 12.74999877 0.04473375 14.37890625 0.04882812 C18.37503577 0.05986228 22.37109592 0.07712946 26.3671875 0.09765625 C26.8621875 5.54265625 26.8621875 5.54265625 27.3671875 11.09765625 C21.4271875 11.59265625 21.4271875 11.59265625 15.3671875 12.09765625 C16.0478125 14.04671875 16.0478125 14.04671875 16.7421875 16.03515625 C16.99742188 16.76605469 17.25265625 17.49695313 17.515625 18.25 C18.21990163 20.28447741 18.21990163 20.28447741 20.3671875 21.09765625 C24.03743474 21.12371277 27.69475029 21.07042431 31.36328125 20.97070312 C36.72482795 20.89512577 41.21489892 21.59441416 46.3671875 23.09765625 C45.7071875 24.08765625 45.0471875 25.07765625 44.3671875 26.09765625 C41.96946716 26.46514893 41.96946716 26.46514893 38.92358398 26.45410156 C37.21687782 26.45860321 37.21687782 26.45860321 35.47569275 26.4631958 C34.24234695 26.450849 33.00900116 26.4385022 31.73828125 26.42578125 C30.47830826 26.42390808 29.21833527 26.42203491 27.92018127 26.42010498 C25.25255407 26.41337191 22.58568412 26.40106838 19.91821289 26.37890625 C16.49254005 26.3505949 13.06710466 26.33969219 9.64132595 26.33522415 C6.3819481 26.3300778 3.12262784 26.31553762 -0.13671875 26.30078125 C-1.37208878 26.29653137 -2.6074588 26.29228149 -3.88026428 26.28790283 C-5.5822422 26.27349152 -5.5822422 26.27349152 -7.31860352 26.25878906 C-8.8251223 26.24854706 -8.8251223 26.24854706 -10.36207581 26.23809814 C-12.6328125 26.09765625 -12.6328125 26.09765625 -13.6328125 25.09765625 C-13.93874446 22.02398947 -13.91121433 18.93467705 -13.9453125 15.84765625 C-13.97431641 14.98785156 -14.00332031 14.12804687 -14.03320312 13.2421875 C-14.07560902 9.00812241 -14.02069136 6.72146143 -11.73828125 3.05078125 C-8.0122238 -0.40567279 -4.84760483 -0.03411556 0 0 Z " fill="#131313" transform="translate(28.6328125,63.90234375)"></path><path d="M0 0 C1.25683594 0.00322266 2.51367188 0.00644531 3.80859375 0.00976562 C5.12730469 0.01814453 6.44601563 0.02652344 7.8046875 0.03515625 C9.14452961 0.04017136 10.4843735 0.04473424 11.82421875 0.04882812 C15.10941956 0.06064539 18.39453147 0.07712008 21.6796875 0.09765625 C21.87213767 2.5597965 22.00871069 5.00646913 22.1171875 7.47265625 C22.17583984 8.15199219 22.23449219 8.83132812 22.29492188 9.53125 C22.48027284 15.19769374 20.77151003 19.62769751 17.34741211 24.13037109 C11.536631 28.41546985 3.62540651 27.0853271 -3.2578125 26.72265625 C-4.91197514 26.67244667 -6.56628388 26.62682774 -8.22070312 26.5859375 C-12.25753474 26.4762024 -16.28731128 26.30398847 -20.3203125 26.09765625 C-18.88803016 22.86615063 -17.44856677 19.63789256 -16.0078125 16.41015625 C-15.60369141 15.49814453 -15.19957031 14.58613281 -14.78320312 13.64648438 C-8.66205104 -0.03901825 -8.66205104 -0.03901825 0 0 Z " fill="#080808" transform="translate(40.3203125,34.90234375)"></path><path d="M0 0 C0.99 0 1.98 0 3 0 C3.33 1.32 3.66 2.64 4 4 C5.32 3.67 6.64 3.34 8 3 C7.5812813 5.42856845 7.35655214 6.68710731 5.46875 8.34375 C3.51951399 10.54182464 3.68692034 11.79916776 3.8125 14.6875 C3.83957031 15.49574219 3.86664063 16.30398437 3.89453125 17.13671875 C3.92933594 17.75160156 3.96414062 18.36648437 4 19 C7.26046559 18.26051296 9.0252021 17.82113986 11 15 C11.73041853 11.38976901 11.73041853 11.38976901 12 8 C15.33333333 8 18.66666667 8 22 8 C21.34 9.65 20.68 11.3 20 13 C20.66 13.33 21.32 13.66 22 14 C22 14.99 22 15.98 22 17 C20.7625 17.0825 19.525 17.165 18.25 17.25 C15.19230959 17.63492202 14.07352071 17.94669748 11.5 19.8125 C9.6229811 22.10775475 9.6229811 22.10775475 10 26 C16.77879847 25.89937511 16.77879847 25.89937511 22.625 22.9375 C23.07875 22.298125 23.5325 21.65875 24 21 C24.99 21.33 25.98 21.66 27 22 C26.505 23.485 26.505 23.485 26 25 C26.99 25.33 27.98 25.66 29 26 C29 27.32 29 28.64 29 30 C28.01 30.33 27.02 30.66 26 31 C26 32.32 26 33.64 26 35 C23.53199953 33.84826645 21.95216435 32.95216435 20 31 C17.56747339 30.53837573 17.56747339 30.53837573 14.875 30.375 C13.96492188 30.30023438 13.05484375 30.22546875 12.1171875 30.1484375 C11.06917969 30.07496094 11.06917969 30.07496094 10 30 C10.34339316 32.54110939 10.72351563 34.54461398 12.0625 36.75 C15.17653764 38.75905654 18.33582847 38.69965807 22 39 C21.835 39.61875 21.67 40.2375 21.5 40.875 C20.92365356 42.96063386 20.92365356 42.96063386 21 45 C21 46.32 21 47.64 21 49 C20.4225 48.62875 19.845 48.2575 19.25 47.875 C17 46.70833333 17 46.70833333 14.75 47.875 C14.1725 48.24625 13.595 48.6175 13 49 C12 48 12 48 11.6875 44.6875 C10.93790293 40.66693391 10.24727573 39.38770274 7 37 C6.01 37 5.02 37 4 37 C3.33831592 43.14356697 3.33831592 43.14356697 6 48.375 C6.66 48.91125 7.32 49.4475 8 50 C8 50.99 8 51.98 8 53 C6.68 52.67 5.36 52.34 4 52 C3.67 53.32 3.34 54.64 3 56 C2.01 56 1.02 56 0 56 C-0.33 54.68 -0.66 53.36 -1 52 C-2.98 52.495 -2.98 52.495 -5 53 C-5 52.01 -5 51.02 -5 50 C-4.34 49.4225 -3.68 48.845 -3 48.25 C-0.24973378 45.1559505 -0.77668522 43.01966602 -1 39 C-0.67 38.34 -0.34 37.68 0 37 C-0.763125 36.773125 -1.52625 36.54625 -2.3125 36.3125 C-5.66154755 34.67691864 -6.59553196 33.43314409 -8 30 C-7.82775026 25.77988125 -6.94272555 23.0559073 -4 20 C-3.01 19.67 -2.02 19.34 -1 19 C-0.39290443 12.07911053 -1.55928199 9.32886161 -6 4 C-4.68 3.67 -3.36 3.34 -2 3 C-2 3.66 -2 4.32 -2 5 C-1.34 5 -0.68 5 0 5 C-0.33 4.01 -0.66 3.02 -1 2 C-0.67 1.34 -0.34 0.68 0 0 Z " fill="#1A1A1A" transform="translate(97,23)"></path><path d="M0 0 C0.99 0.33 1.98 0.66 3 1 C3.01401855 2.11242065 3.01401855 2.11242065 3.02832031 3.24731445 C3.08195751 6.60305714 3.16561793 9.95739562 3.25 13.3125 C3.26417969 14.47974609 3.27835938 15.64699219 3.29296875 16.84960938 C3.32519531 17.96787109 3.35742188 19.08613281 3.390625 20.23828125 C3.41157227 21.26993408 3.43251953 22.30158691 3.45410156 23.36450195 C3.75085654 26.13921515 3.75085654 26.13921515 6.00488281 27.73901367 C6.66327148 28.15513916 7.32166016 28.57126465 8 29 C8.74774777 31.72708011 8.56354414 34.23978381 8 37 C5.81246717 39.6923481 4.41576045 39.93936827 1 40.4375 C-2 40 -2 40 -4.375 38.375 C-6.48706506 35.28813568 -6.61195145 33.6717087 -6 30 C-4.125 27.625 -4.125 27.625 -2 26 C-1.34 26 -0.68 26 0 26 C0 17.42 0 8.84 0 0 Z " fill="#EFEFEF" transform="translate(73,34)"></path><path d="M0 0 C3.99991658 0.99052755 6.01144527 4.12508898 8.06640625 7.51171875 C9.44140625 10.94921875 9.44140625 10.94921875 10.06640625 13.51171875 C8.13273075 15.44539425 4.89234742 14.86103819 2.31640625 14.94921875 C-4.21538053 14.90261069 -4.21538053 14.90261069 -7.0078125 13.3828125 C-9.3938452 10.76432962 -9.93359375 8.75392279 -9.93359375 5.26171875 C-8.17591093 0.42809098 -4.85106411 -0.11613966 0 0 Z " fill="#ECECEC" transform="translate(27.93359375,68.48828125)"></path><path d="M0 0 C3.96 0 7.92 0 12 0 C12.33 1.65 12.66 3.3 13 5 C11 7 11 7 8.65234375 7.23046875 C7.75644531 7.21628906 6.86054688 7.20210938 5.9375 7.1875 C4.58978516 7.17783203 4.58978516 7.17783203 3.21484375 7.16796875 C1 7 1 7 0 6 C0 4.02 0 2.04 0 0 Z " fill="#1C1C1C" transform="translate(17,92)"></path><path d="M0 0 C3.1875 0.375 3.1875 0.375 5.5625 2.6875 C7.1875 5.375 7.1875 5.375 7.1875 8.375 C5.72957116 8.42899736 4.27107288 8.46779177 2.8125 8.5 C2.00039063 8.52320312 1.18828125 8.54640625 0.3515625 8.5703125 C-1.8125 8.375 -1.8125 8.375 -3.8125 6.375 C-4 3.8125 -4 3.8125 -3.8125 1.375 C-2.8125 0.375 -2.8125 0.375 0 0 Z " fill="#111111" transform="translate(25.8125,71.625)"></path><path d="M0 0 C3.5625 0.125 3.5625 0.125 5.5625 1.125 C5.5625 3.105 5.5625 5.085 5.5625 7.125 C4.10457116 7.17899736 2.64607288 7.21779177 1.1875 7.25 C0.37539062 7.27320312 -0.43671875 7.29640625 -1.2734375 7.3203125 C-3.4375 7.125 -3.4375 7.125 -5.4375 5.125 C-4.79234434 0.86697264 -4.46867 0.16249709 0 0 Z " fill="#161616" transform="translate(9.4375,56.875)"></path><path d="M0 0 C1.74784467 -0.13560864 3.49873926 -0.23227209 5.25 -0.3125 C6.22453125 -0.37050781 7.1990625 -0.42851563 8.203125 -0.48828125 C11 0 11 0 15 5 C10.71 5 6.42 5 2 5 C1.34 3.35 0.68 1.7 0 0 Z " fill="#191919" transform="translate(47,78)"></path><path d="M0 0 C2.625 0.375 2.625 0.375 5 1 C5.625 3.375 5.625 3.375 6 6 C5.34 6.66 4.68 7.32 4 8 C1.375 7.625 1.375 7.625 -1 7 C-1.625 4.625 -1.625 4.625 -2 2 C-1.34 1.34 -0.68 0.68 0 0 Z " fill="#141414" transform="translate(72,63)"></path></svg>