<svg xmlns="http://www.w3.org/2000/svg" width="65" height="65"><path d="M0 0 C3.04732252 0.53328144 3.71689365 0.92608261 5.5 3.4375 C5.87644848 6.06689205 6.10133087 8.48822472 6.1875 11.125 C6.22166016 11.82689453 6.25582031 12.52878906 6.29101562 13.25195312 C6.37329947 14.97991387 6.4383324 16.70868072 6.5 18.4375 C6.78875 17.633125 7.0775 16.82875 7.375 16 C8.5 13.4375 8.5 13.4375 10.5 12.4375 C9.97731534 9.67473823 9.39130413 7.1114124 8.5 4.4375 C9.16 4.4375 9.82 4.4375 10.5 4.4375 C10.83 3.7775 11.16 3.1175 11.5 2.4375 C12.16 2.4375 12.82 2.4375 13.5 2.4375 C13.995 3.4275 13.995 3.4275 14.5 4.4375 C15.16 4.4375 15.82 4.4375 16.5 4.4375 C16.5 5.0975 16.5 5.7575 16.5 6.4375 C15.84 6.7675 15.18 7.0975 14.5 7.4375 C14.5 9.0875 14.5 10.7375 14.5 12.4375 C15.16 12.1075 15.82 11.7775 16.5 11.4375 C17.15555119 8.91016765 17.15555119 8.91016765 17.5 6.4375 C19.48 6.4375 21.46 6.4375 23.5 6.4375 C23.5 8.0875 23.5 9.7375 23.5 11.4375 C22.695625 11.72625 21.89125 12.015 21.0625 12.3125 C18.3673532 13.17012568 18.3673532 13.17012568 17.5 15.4375 C20.26276177 14.91481534 22.8260876 14.32880413 25.5 13.4375 C26.625 18.1875 26.625 18.1875 25.5 20.4375 C21.045 19.4475 21.045 19.4475 16.5 18.4375 C18.16954819 21.66154978 18.16954819 21.66154978 21.125 22.125 C21.90875 22.228125 22.6925 22.33125 23.5 22.4375 C23.5 23.7575 23.5 25.0775 23.5 26.4375 C22.51 27.0975 21.52 27.7575 20.5 28.4375 C19.51 28.1075 18.52 27.7775 17.5 27.4375 C16.79788106 25.78545544 16.13028587 24.11826231 15.5 22.4375 C14.84 22.1075 14.18 21.7775 13.5 21.4375 C13.809375 22.365625 14.11875 23.29375 14.4375 24.25 C15.125 26.3125 15.8125 28.375 16.5 30.4375 C11.95945946 31.57263514 11.95945946 31.57263514 9.375 30.8125 C8.75625 30.68875 8.1375 30.565 7.5 30.4375 C5.89588754 31.79155861 5.89588754 31.79155861 4.5 33.4375 C3.51 33.7675 2.52 34.0975 1.5 34.4375 C1.17 35.4275 0.84 36.4175 0.5 37.4375 C-3.16664954 37.46682237 -6.8332684 37.48440637 -10.5 37.5 C-11.52996094 37.50837891 -12.55992188 37.51675781 -13.62109375 37.52539062 C-19.35025613 37.54363637 -24.83484101 37.30225384 -30.5 36.4375 C-30.58167446 35.02180936 -30.63949698 33.60473195 -30.6875 32.1875 C-30.72230469 31.39859375 -30.75710937 30.6096875 -30.79296875 29.796875 C-30.40208561 26.6489628 -29.96935615 25.48273009 -27.5 23.4375 C-23.70526454 23.00149436 -19.89648126 23.45018704 -16.10351562 23.76953125 C-13.7826657 23.87995725 -11.77725893 23.90565813 -9.5 23.4375 C-6.45535345 20.35572361 -5.58802617 18.4528156 -5.21484375 14.1484375 C-5.28832031 13.04757813 -5.36179687 11.94671875 -5.4375 10.8125 C-5.81088657 4.98766953 -5.81088657 4.98766953 -4.16015625 2.06640625 C-2.5 0.4375 -2.5 0.4375 0 0 Z M-0.5 9.4375 C-0.5 13.7275 -0.5 18.0175 -0.5 22.4375 C-0.17 22.4375 0.16 22.4375 0.5 22.4375 C0.5 18.1475 0.5 13.8575 0.5 9.4375 C0.17 9.4375 -0.16 9.4375 -0.5 9.4375 Z M7.5 19.4375 C7.83 22.4075 8.16 25.3775 8.5 28.4375 C9.49 27.7775 10.48 27.1175 11.5 26.4375 C11.75030977 23.85369823 11.75030977 23.85369823 11.5 21.4375 C10.18 20.7775 8.86 20.1175 7.5 19.4375 Z M2.5 23.4375 C3.5 26.4375 3.5 26.4375 3.5 26.4375 Z M-26.5 26.4375 C-22.5 27.4375 -22.5 27.4375 -22.5 27.4375 Z M-27.5 27.4375 C-26.5 31.4375 -26.5 31.4375 -26.5 31.4375 Z M1.5 26.4375 C0.51 27.0975 -0.48 27.7575 -1.5 28.4375 C-0.18 28.4375 1.14 28.4375 2.5 28.4375 C2.17 27.7775 1.84 27.1175 1.5 26.4375 Z M-20.5 29.4375 C-19.5 32.4375 -19.5 32.4375 -19.5 32.4375 Z M-8.5 28.4375 C-10.81 29.0975 -13.12 29.7575 -15.5 30.4375 C-14.84 31.7575 -14.18 33.0775 -13.5 34.4375 C-9.21 34.4375 -4.92 34.4375 -0.5 34.4375 C-1.82 33.7775 -3.14 33.1175 -4.5 32.4375 C-5.87086915 31.14279025 -7.21340837 29.81599103 -8.5 28.4375 Z " fill="#0C0C0C" transform="translate(38.5,9.5625)"></path><path d="M0 0 C0.84498047 0.01804688 1.68996094 0.03609375 2.56054688 0.0546875 C4.64501573 0.10179414 6.72890144 0.17353767 8.8125 0.25 C9.1425 2.23 9.4725 4.21 9.8125 6.25 C7.8325 6.58 5.8525 6.91 3.8125 7.25 C4.1425 8.24 4.4725 9.23 4.8125 10.25 C9.7625 10.25 14.7125 10.25 19.8125 10.25 C19.4825 11.57 19.1525 12.89 18.8125 14.25 C15.14585046 14.27932237 11.4792316 14.29690637 7.8125 14.3125 C6.78253906 14.32087891 5.75257812 14.32925781 4.69140625 14.33789062 C-1.03775613 14.35613637 -6.52234101 14.11475384 -12.1875 13.25 C-12.26917446 11.83430936 -12.32699698 10.41723195 -12.375 9 C-12.40980469 8.21109375 -12.44460937 7.4221875 -12.48046875 6.609375 C-11.53696264 -0.98899424 -6.29004067 -0.25296374 0 0 Z M-8.1875 3.25 C-4.1875 4.25 -4.1875 4.25 -4.1875 4.25 Z M-9.1875 4.25 C-8.1875 8.25 -8.1875 8.25 -8.1875 8.25 Z M-2.1875 6.25 C-1.1875 9.25 -1.1875 9.25 -1.1875 9.25 Z " fill="#0D0D0D" transform="translate(20.1875,32.75)"></path><path d="M0 0 C0.08153933 1.58246707 0.13943557 3.16616273 0.1875 4.75 C0.23970703 6.07257812 0.23970703 6.07257812 0.29296875 7.421875 C-0.08000304 10.70402679 -0.41778337 11.88727731 -3 14 C-6.07558079 14.49221714 -9.08315908 14.37484588 -12.1875 14.25 C-13.03248047 14.23195313 -13.87746094 14.21390625 -14.74804688 14.1953125 C-16.83251573 14.14820586 -18.91640144 14.07646233 -21 14 C-16.8178882 1.19686827 -14.1002503 -1.3737727 0 0 Z " fill="#0C0C0C" transform="translate(32,18)"></path><path d="M0 0 C0.66 0 1.32 0 2 0 C2.33 0.66 2.66 1.32 3 2 C3.66 2 4.32 2 5 2 C5 2.66 5 3.32 5 4 C4.01 4.495 4.01 4.495 3 5 C3 6.65 3 8.3 3 10 C3.66 9.67 4.32 9.34 5 9 C5.65555119 6.47266765 5.65555119 6.47266765 6 4 C7.98 4 9.96 4 12 4 C12 5.65 12 7.3 12 9 C11.195625 9.28875 10.39125 9.5775 9.5625 9.875 C6.8673532 10.73262568 6.8673532 10.73262568 6 13 C8.76276177 12.47731534 11.3260876 11.89130413 14 11 C15.125 15.75 15.125 15.75 14 18 C9.545 17.01 9.545 17.01 5 16 C6.66954819 19.22404978 6.66954819 19.22404978 9.625 19.6875 C10.40875 19.790625 11.1925 19.89375 12 20 C12 21.32 12 22.64 12 24 C11.01 24.66 10.02 25.32 9 26 C8.01 25.67 7.02 25.34 6 25 C5.29788106 23.34795544 4.63028587 21.68076231 4 20 C3.34 19.67 2.68 19.34 2 19 C2.309375 19.928125 2.61875 20.85625 2.9375 21.8125 C3.625 23.875 4.3125 25.9375 5 28 C3.35 28.33 1.7 28.66 0 29 C-1.2380014 25.42355152 -0.74926071 22.66305234 0 19 C-1.32 18.34 -2.64 17.68 -4 17 C-3.625 14.0625 -3.625 14.0625 -3 11 C-2.34 10.67 -1.68 10.34 -1 10 C-1.52268466 7.23723823 -2.10869587 4.6739124 -3 2 C-2.34 2 -1.68 2 -1 2 C-0.67 1.34 -0.34 0.68 0 0 Z " fill="#101010" transform="translate(50,12)"></path><path d="M0 0 C-0.33 0.99 -0.66 1.98 -1 3 C-8.59 3 -16.18 3 -24 3 C-23.67 2.34 -23.34 1.68 -23 1 C-20.99047852 0.57348633 -20.99047852 0.57348633 -18.37890625 0.33203125 C-16.97608398 0.19958008 -16.97608398 0.19958008 -15.54492188 0.06445312 C-14.56072266 -0.01869141 -13.57652344 -0.10183594 -12.5625 -0.1875 C-11.58216797 -0.28224609 -10.60183594 -0.37699219 -9.59179688 -0.47460938 C-2.26954264 -1.13477132 -2.26954264 -1.13477132 0 0 Z " fill="#484848" transform="translate(40,44)"></path><path d="M0 0 C0.66 0 1.32 0 2 0 C2.33 0.66 2.66 1.32 3 2 C3.66 2 4.32 2 5 2 C5 2.66 5 3.32 5 4 C4.01 4.495 4.01 4.495 3 5 C3.103125 5.928125 3.20625 6.85625 3.3125 7.8125 C3.1578125 9.3903125 3.1578125 9.3903125 3 11 C0.625 12.6875 0.625 12.6875 -2 14 C-2.66 14.99 -3.32 15.98 -4 17 C-3.625 14.0625 -3.625 14.0625 -3 11 C-2.34 10.67 -1.68 10.34 -1 10 C-1.52268466 7.23723823 -2.10869587 4.6739124 -3 2 C-2.34 2 -1.68 2 -1 2 C-0.67 1.34 -0.34 0.68 0 0 Z " fill="#222222" transform="translate(50,12)"></path><path d="M0 0 C0.391875 0.474375 0.78375 0.94875 1.1875 1.4375 C3.40808374 3.35179633 5.13375709 3.61266988 8 4 C8 5.32 8 6.64 8 8 C7.01 8.66 6.02 9.32 5 10 C4.01 9.67 3.02 9.34 2 9 C0.875 6.5625 0.875 6.5625 0 4 C-0.33 3.34 -0.66 2.68 -1 2 C-0.67 1.34 -0.34 0.68 0 0 Z " fill="#2C2C2C" transform="translate(54,28)"></path><path d="M0 0 C2.475 0.495 2.475 0.495 5 1 C5.33 2.32 5.66 3.64 6 5 C4.35 5.33 2.7 5.66 1 6 C0.67 4.02 0.34 2.04 0 0 Z " fill="#313131" transform="translate(12,37)"></path><path d="M0 0 C1.98 0 3.96 0 6 0 C6 1.32 6 2.64 6 4 C4.02 4 2.04 4 0 4 C0 2.68 0 1.36 0 0 Z " fill="#252525" transform="translate(10,47)"></path><path d="M0 0 C2.25245881 2.68841859 3.88213958 4.64641875 5 8 C3.35 8.33 1.7 8.66 0 9 C-1.10844919 5.67465243 -0.84454356 3.37817425 0 0 Z " fill="#1F1F1F" transform="translate(50,32)"></path><path d="M0 0 C1.98 0 3.96 0 6 0 C6 1.32 6 2.64 6 4 C4.35 4 2.7 4 1 4 C0.67 2.68 0.34 1.36 0 0 Z " fill="#1A1A1A" transform="translate(3,30)"></path><path d="M0 0 C0.66 0.33 1.32 0.66 2 1 C1.67 2.65 1.34 4.3 1 6 C-0.65 5.67 -2.3 5.34 -4 5 C-2.68 3.35 -1.36 1.7 0 0 Z " fill="#3D3D3D" transform="translate(39,31)"></path><path d="M0 0 C1.98 0 3.96 0 6 0 C6 1.65 6 3.3 6 5 C3.03 4.505 3.03 4.505 0 4 C0 2.68 0 1.36 0 0 Z " fill="#353535" transform="translate(56,16)"></path><path d="M0 0 C1.98 0 3.96 0 6 0 C6.33 0.99 6.66 1.98 7 3 C5.02 3 3.04 3 1 3 C0.67 2.01 0.34 1.02 0 0 Z " fill="#1F1F1F" transform="translate(25,40)"></path><path d="M0 0 C2.475 0.99 2.475 0.99 5 2 C4.38125 2.2475 3.7625 2.495 3.125 2.75 C0.64931313 4.20628639 0.04874998 5.37812506 -1 8 C-1.625 5.125 -1.625 5.125 -2 2 C-1.34 1.34 -0.68 0.68 0 0 Z " fill="#2D2D2D" transform="translate(11,33)"></path></svg>